<svg width="153" height="47" viewBox="0 0 153 47" fill="none" xmlns="http://www.w3.org/2000/svg">
<mask id="path-1-outside-1_1_3" maskUnits="userSpaceOnUse" x="-1" y="-1" width="155" height="49" fill="black">
<rect fill="white" x="-1" y="-1" width="155" height="49"/>
<path d="M14.64 14.4C15.52 14.4 16.2933 14.64 16.96 15.12C17.6267 15.6 18.1467 16.2667 18.52 17.12L15.88 20.44H14.36C14.2533 19.7733 14.0533 19.3067 13.76 19.04C13.4933 18.7467 13.12 18.6 12.64 18.6C12.0533 18.6 11.4267 18.76 10.76 19.08C10.12 19.3733 9.38667 19.9467 8.56 20.8V32.72L14.16 34.44L13.36 36.04H0.2V34.8L3.76 32V20.68L0.2 18.6V17.36L7.04 14L8.28 18.92L12.44 14.68C13 14.4667 13.7333 14.36 14.64 14.36V14.4ZM34.5822 36.08C33.5155 36.2933 32.2355 36.4 30.7422 36.4C28.9822 36.4 27.3955 35.9467 25.9822 35.04C24.5955 34.1067 23.5022 32.8533 22.7022 31.28C21.9289 29.7067 21.5422 27.9733 21.5422 26.08C21.5422 24.0267 22.1689 22.1067 23.4222 20.32C24.6755 18.5067 26.2355 17.0667 28.1022 16C29.9955 14.9067 31.8222 14.36 33.5822 14.36C36.1155 14.36 38.0755 15.36 39.4622 17.36C40.8755 19.36 41.5822 22 41.5822 25.28H26.7822C26.9422 27.5467 27.5555 29.4 28.6222 30.84C29.7155 32.28 31.1955 33 33.0622 33C34.7955 33 37.2622 31.6533 40.4622 28.96L41.6622 30.48L34.5822 36.08ZM31.2622 17.72C28.3822 17.72 26.8755 19.6933 26.7422 23.64H36.1022C35.8622 22.2 35.6089 21.1067 35.3422 20.36C35.1022 19.5867 34.6622 18.96 34.0222 18.48C33.4089 17.9733 32.4889 17.72 31.2622 17.72Z"/>
<path d="M69.4241 36H61.8241V31.84L56.7441 36.08C56.1841 36.2933 55.4507 36.4 54.5441 36.4C52.7307 36.4 51.2907 35.8533 50.2241 34.76C49.1574 33.64 48.6241 32.1333 48.6241 30.24V20.68L45.0641 18.6V17.36L51.9041 14H53.4241V28.24C53.4241 29.7067 53.6507 30.7333 54.1041 31.32C54.5574 31.9067 55.3707 32.2 56.5441 32.2C57.3707 32.2 58.1841 32.0533 58.9841 31.76C59.7841 31.44 60.7307 30.8267 61.8241 29.92V20.68L58.2641 18.6V17.36L65.1041 14H66.6241V33L70.2241 34.4L69.4241 36ZM94.9128 36H88.9528L82.6728 27.6L78.2328 31.76L81.9528 34.44L81.1528 36.04H72.3928V34.8L81.5528 26.08L75.7528 18.56L72.2328 16.36L73.0328 14.76H78.9928L85.1928 23.04L89.4728 19.04L85.7528 16.36L86.5528 14.76H95.3128V16L86.3128 24.56L92.1528 32.16L95.7128 34.4L94.9128 36ZM109.719 36H98.5594V34.76L102.119 31.96V20.28L98.5594 17.8V16.56L105.399 14H106.919V33L110.519 34.4L109.719 36ZM104.359 2C105.159 2 105.813 2.29333 106.319 2.88C106.853 3.46666 107.119 4.2 107.119 5.08C107.119 5.69333 106.933 6.28 106.559 6.84C106.186 7.37333 105.719 7.8 105.159 8.12C104.599 8.44 104.053 8.6 103.519 8.6C102.719 8.6 102.053 8.30666 101.519 7.72C101.013 7.13333 100.759 6.4 100.759 5.52C100.759 4.90667 100.946 4.33333 101.319 3.8C101.693 3.24 102.159 2.8 102.719 2.48C103.279 2.16 103.826 2 104.359 2ZM128.506 0.679999C129.253 0.679999 130.093 0.759999 131.026 0.919999C131.986 1.05333 132.666 1.2 133.066 1.36V7.52H131.546C130.88 6.45333 130.066 5.61333 129.106 5C128.146 4.36 127.173 4.04 126.186 4.04C124.96 4.04 124.026 4.58667 123.386 5.68C122.773 6.77333 122.466 8.37333 122.466 10.48V15.96H129.666V17.6H122.466V32.68L128.066 34.4L127.266 36H114.106V34.76L117.666 31.96V17.6H112.906V15.96H117.666V12.4C117.666 10.3467 118.226 8.41333 119.346 6.6C120.466 4.78667 121.866 3.34667 123.546 2.28C125.253 1.21333 126.906 0.679999 128.506 0.679999ZM152.804 16L142.684 36L134.364 46.56L132.844 45.36C134.364 43.7333 135.511 42.3067 136.284 41.08C137.084 39.8533 137.644 38.6133 137.964 37.36C138.284 36.1333 138.444 34.6667 138.444 32.96L133.404 20.76L129.684 18.6V17.36L136.524 14L138.044 20.04L142.924 31.96L148.564 20.24L143.244 16.36L144.044 14.76H152.804V16Z"/>
</mask>
<path d="M14.64 14.4C15.52 14.4 16.2933 14.64 16.96 15.12C17.6267 15.6 18.1467 16.2667 18.52 17.12L15.88 20.44H14.36C14.2533 19.7733 14.0533 19.3067 13.76 19.04C13.4933 18.7467 13.12 18.6 12.64 18.6C12.0533 18.6 11.4267 18.76 10.76 19.08C10.12 19.3733 9.38667 19.9467 8.56 20.8V32.72L14.16 34.44L13.36 36.04H0.2V34.8L3.76 32V20.68L0.2 18.6V17.36L7.04 14L8.28 18.92L12.44 14.68C13 14.4667 13.7333 14.36 14.64 14.36V14.4ZM34.5822 36.08C33.5155 36.2933 32.2355 36.4 30.7422 36.4C28.9822 36.4 27.3955 35.9467 25.9822 35.04C24.5955 34.1067 23.5022 32.8533 22.7022 31.28C21.9289 29.7067 21.5422 27.9733 21.5422 26.08C21.5422 24.0267 22.1689 22.1067 23.4222 20.32C24.6755 18.5067 26.2355 17.0667 28.1022 16C29.9955 14.9067 31.8222 14.36 33.5822 14.36C36.1155 14.36 38.0755 15.36 39.4622 17.36C40.8755 19.36 41.5822 22 41.5822 25.28H26.7822C26.9422 27.5467 27.5555 29.4 28.6222 30.84C29.7155 32.28 31.1955 33 33.0622 33C34.7955 33 37.2622 31.6533 40.4622 28.96L41.6622 30.48L34.5822 36.08ZM31.2622 17.72C28.3822 17.72 26.8755 19.6933 26.7422 23.64H36.1022C35.8622 22.2 35.6089 21.1067 35.3422 20.36C35.1022 19.5867 34.6622 18.96 34.0222 18.48C33.4089 17.9733 32.4889 17.72 31.2622 17.72Z" fill="#FF0F13"/>
<path d="M69.4241 36H61.8241V31.84L56.7441 36.08C56.1841 36.2933 55.4507 36.4 54.5441 36.4C52.7307 36.4 51.2907 35.8533 50.2241 34.76C49.1574 33.64 48.6241 32.1333 48.6241 30.24V20.68L45.0641 18.6V17.36L51.9041 14H53.4241V28.24C53.4241 29.7067 53.6507 30.7333 54.1041 31.32C54.5574 31.9067 55.3707 32.2 56.5441 32.2C57.3707 32.2 58.1841 32.0533 58.9841 31.76C59.7841 31.44 60.7307 30.8267 61.8241 29.92V20.68L58.2641 18.6V17.36L65.1041 14H66.6241V33L70.2241 34.4L69.4241 36ZM94.9128 36H88.9528L82.6728 27.6L78.2328 31.76L81.9528 34.44L81.1528 36.04H72.3928V34.8L81.5528 26.08L75.7528 18.56L72.2328 16.36L73.0328 14.76H78.9928L85.1928 23.04L89.4728 19.04L85.7528 16.36L86.5528 14.76H95.3128V16L86.3128 24.56L92.1528 32.16L95.7128 34.4L94.9128 36ZM109.719 36H98.5594V34.76L102.119 31.96V20.28L98.5594 17.8V16.56L105.399 14H106.919V33L110.519 34.4L109.719 36ZM104.359 2C105.159 2 105.813 2.29333 106.319 2.88C106.853 3.46666 107.119 4.2 107.119 5.08C107.119 5.69333 106.933 6.28 106.559 6.84C106.186 7.37333 105.719 7.8 105.159 8.12C104.599 8.44 104.053 8.6 103.519 8.6C102.719 8.6 102.053 8.30666 101.519 7.72C101.013 7.13333 100.759 6.4 100.759 5.52C100.759 4.90667 100.946 4.33333 101.319 3.8C101.693 3.24 102.159 2.8 102.719 2.48C103.279 2.16 103.826 2 104.359 2ZM128.506 0.679999C129.253 0.679999 130.093 0.759999 131.026 0.919999C131.986 1.05333 132.666 1.2 133.066 1.36V7.52H131.546C130.88 6.45333 130.066 5.61333 129.106 5C128.146 4.36 127.173 4.04 126.186 4.04C124.96 4.04 124.026 4.58667 123.386 5.68C122.773 6.77333 122.466 8.37333 122.466 10.48V15.96H129.666V17.6H122.466V32.68L128.066 34.4L127.266 36H114.106V34.76L117.666 31.96V17.6H112.906V15.96H117.666V12.4C117.666 10.3467 118.226 8.41333 119.346 6.6C120.466 4.78667 121.866 3.34667 123.546 2.28C125.253 1.21333 126.906 0.679999 128.506 0.679999ZM152.804 16L142.684 36L134.364 46.56L132.844 45.36C134.364 43.7333 135.511 42.3067 136.284 41.08C137.084 39.8533 137.644 38.6133 137.964 37.36C138.284 36.1333 138.444 34.6667 138.444 32.96L133.404 20.76L129.684 18.6V17.36L136.524 14L138.044 20.04L142.924 31.96L148.564 20.24L143.244 16.36L144.044 14.76H152.804V16Z" fill="#F5F5F5"/>
<path d="M14.64 14.4H13.64V15.4H14.64V14.4ZM16.96 15.12L17.5443 14.3085L17.5443 14.3085L16.96 15.12ZM18.52 17.12L19.3027 17.7424L19.6776 17.271L19.4362 16.7192L18.52 17.12ZM15.88 20.44V21.44H16.3624L16.6627 21.0624L15.88 20.44ZM14.36 20.44L13.3726 20.598L13.5073 21.44H14.36V20.44ZM13.76 19.04L13.0201 19.7127L13.0521 19.7479L13.0873 19.7799L13.76 19.04ZM10.76 19.08L11.1767 19.9891L11.1847 19.9854L11.1927 19.9815L10.76 19.08ZM8.56 20.8L7.84176 20.1042L7.56 20.3951V20.8H8.56ZM8.56 32.72H7.56V33.459L8.26639 33.6759L8.56 32.72ZM14.16 34.44L15.0544 34.8872L15.5826 33.8308L14.4536 33.4841L14.16 34.44ZM13.36 36.04V37.04H13.978L14.2544 36.4872L13.36 36.04ZM0.2 36.04H-0.8V37.04H0.2V36.04ZM0.2 34.8L-0.418211 34.014L-0.8 34.3143V34.8H0.2ZM3.76 32L4.37821 32.786L4.76 32.4857V32H3.76ZM3.76 20.68H4.76V20.1061L4.26447 19.8166L3.76 20.68ZM0.2 18.6H-0.8V19.1739L-0.304474 19.4634L0.2 18.6ZM0.2 17.36L-0.240904 16.4624L-0.8 16.7371V17.36H0.2ZM7.04 14L8.00968 13.7556L7.7078 12.5578L6.5991 13.1024L7.04 14ZM8.28 18.92L7.31032 19.1644L7.74582 20.8923L8.99381 19.6203L8.28 18.92ZM12.44 14.68L12.084 13.7455L11.8795 13.8234L11.7262 13.9797L12.44 14.68ZM14.64 14.36H15.64V13.36H14.64V14.36ZM14.64 15.4C15.3261 15.4 15.8916 15.583 16.3757 15.9315L17.5443 14.3085C16.6951 13.697 15.7139 13.4 14.64 13.4V15.4ZM16.3757 15.9315C16.8783 16.2934 17.2925 16.8092 17.6038 17.5208L19.4362 16.7192C19.0008 15.7241 18.375 14.9066 17.5443 14.3085L16.3757 15.9315ZM17.7373 16.4976L15.0973 19.8176L16.6627 21.0624L19.3027 17.7424L17.7373 16.4976ZM15.88 19.44H14.36V21.44H15.88V19.44ZM15.3474 20.282C15.2278 19.5344 14.9765 18.7945 14.4327 18.3001L13.0873 19.7799C13.1301 19.8189 13.2788 20.0123 13.3726 20.598L15.3474 20.282ZM14.4999 18.3673C14.0044 17.8222 13.3374 17.6 12.64 17.6V19.6C12.9026 19.6 12.9823 19.6711 13.0201 19.7127L14.4999 18.3673ZM12.64 17.6C11.8698 17.6 11.0948 17.8101 10.3273 18.1785L11.1927 19.9815C11.7585 19.7099 12.2369 19.6 12.64 19.6V17.6ZM10.3433 18.1709C9.53879 18.5397 8.70371 19.2144 7.84176 20.1042L9.27824 21.4958C10.0696 20.6789 10.7012 20.207 11.1767 19.9891L10.3433 18.1709ZM7.56 20.8V32.72H9.56V20.8H7.56ZM8.26639 33.6759L13.8664 35.3959L14.4536 33.4841L8.85361 31.7641L8.26639 33.6759ZM13.2656 33.9928L12.4656 35.5928L14.2544 36.4872L15.0544 34.8872L13.2656 33.9928ZM13.36 35.04H0.2V37.04H13.36V35.04ZM1.2 36.04V34.8H-0.8V36.04H1.2ZM0.818212 35.586L4.37821 32.786L3.14179 31.214L-0.418211 34.014L0.818212 35.586ZM4.76 32V20.68H2.76V32H4.76ZM4.26447 19.8166L0.704474 17.7366L-0.304474 19.4634L3.25553 21.5434L4.26447 19.8166ZM1.2 18.6V17.36H-0.8V18.6H1.2ZM0.640904 18.2576L7.4809 14.8976L6.5991 13.1024L-0.240904 16.4624L0.640904 18.2576ZM6.07032 14.2444L7.31032 19.1644L9.24968 18.6756L8.00968 13.7556L6.07032 14.2444ZM8.99381 19.6203L13.1538 15.3803L11.7262 13.9797L7.56619 18.2197L8.99381 19.6203ZM12.796 15.6145C13.1996 15.4607 13.7989 15.36 14.64 15.36V13.36C13.6678 13.36 12.8004 13.4726 12.084 13.7455L12.796 15.6145ZM13.64 14.36V14.4H15.64V14.36H13.64ZM34.5822 36.08L34.7783 37.0606L35.014 37.0134L35.2026 36.8643L34.5822 36.08ZM25.9822 35.04L25.4238 35.8696L25.433 35.8757L25.4422 35.8817L25.9822 35.04ZM22.7022 31.28L21.8047 31.7212L21.8108 31.7332L22.7022 31.28ZM23.4222 20.32L24.2409 20.8943L24.2448 20.8886L23.4222 20.32ZM28.1022 16L28.5983 16.8683L28.6023 16.866L28.1022 16ZM39.4622 17.36L38.6404 17.9298L38.6455 17.9371L39.4622 17.36ZM41.5822 25.28V26.28H42.5822V25.28H41.5822ZM26.7822 25.28V24.28H25.7091L25.7847 25.3504L26.7822 25.28ZM28.6222 30.84L27.8186 31.4353L27.8257 31.4447L28.6222 30.84ZM40.4622 28.96L41.2471 28.3404L40.6077 27.5305L39.8182 28.1949L40.4622 28.96ZM41.6622 30.48L42.2826 31.2643L43.0661 30.6445L42.4471 29.8604L41.6622 30.48ZM26.7422 23.64L25.7428 23.6062L25.7078 24.64H26.7422V23.64ZM36.1022 23.64V24.64H37.2826L37.0886 23.4756L36.1022 23.64ZM35.3422 20.36L34.3871 20.6564L34.3934 20.6765L34.4004 20.6963L35.3422 20.36ZM34.0222 18.48L33.3853 19.251L33.4034 19.2659L33.4222 19.28L34.0222 18.48ZM34.3861 35.0994C33.4028 35.2961 32.1921 35.4 30.7422 35.4V37.4C32.2789 37.4 33.6282 37.2906 34.7783 37.0606L34.3861 35.0994ZM30.7422 35.4C29.1639 35.4 27.7664 34.9965 26.5221 34.1983L25.4422 35.8817C27.0247 36.8968 28.8004 37.4 30.7422 37.4V35.4ZM26.5406 34.2104C25.3031 33.3775 24.3209 32.2571 23.5936 30.8268L21.8108 31.7332C22.6835 33.4495 23.888 34.8358 25.4238 35.8696L26.5406 34.2104ZM23.5996 30.8389C22.8991 29.4136 22.5422 27.8329 22.5422 26.08H20.5422C20.5422 28.1138 20.9586 29.9998 21.8047 31.7211L23.5996 30.8389ZM22.5422 26.08C22.5422 24.2454 23.0977 22.5239 24.2408 20.8943L22.6035 19.7457C21.24 21.6894 20.5422 23.8079 20.5422 26.08H22.5422ZM24.2448 20.8886C25.4153 19.1951 26.8649 17.8588 28.5983 16.8682L27.606 15.1318C25.6062 16.2745 23.9357 17.8182 22.5996 19.7514L24.2448 20.8886ZM28.6023 16.866C30.38 15.8394 32.0355 15.36 33.5822 15.36V13.36C31.6088 13.36 29.611 13.9739 27.6021 15.134L28.6023 16.866ZM33.5822 15.36C35.8036 15.36 37.4495 16.2121 38.6404 17.9298L40.284 16.7902C38.7016 14.5079 36.4275 13.36 33.5822 13.36V15.36ZM38.6455 17.9371C39.9051 19.7195 40.5822 22.1376 40.5822 25.28H42.5822C42.5822 21.8624 41.8459 19.0005 40.2789 16.7829L38.6455 17.9371ZM41.5822 24.28H26.7822V26.28H41.5822V24.28ZM25.7847 25.3504C25.9545 27.7564 26.6119 29.8062 27.8186 31.4352L29.4257 30.2448C28.4991 28.9938 27.9299 27.3369 27.7797 25.2096L25.7847 25.3504ZM27.8257 31.4447C29.1152 33.1431 30.8947 34 33.0622 34V32C31.4963 32 30.3158 31.4169 29.4186 30.2353L27.8257 31.4447ZM33.0622 34C34.1695 34 35.3926 33.5768 36.6914 32.8677C38.0041 32.151 39.4773 31.096 41.1061 29.7251L39.8182 28.1949C38.2471 29.5173 36.8869 30.4823 35.733 31.1123C34.5651 31.7499 33.6882 32 33.0622 32V34ZM39.6773 29.5796L40.8773 31.0996L42.4471 29.8604L41.2471 28.3404L39.6773 29.5796ZM41.0418 29.6957L33.9618 35.2957L35.2026 36.8643L42.2826 31.2643L41.0418 29.6957ZM31.2622 16.72C29.5669 16.72 28.1517 17.317 27.1774 18.5931C26.2433 19.8165 25.8126 21.5384 25.7428 23.6062L27.7416 23.6738C27.8051 21.7949 28.1944 20.5568 28.767 19.8069C29.2993 19.1096 30.0774 18.72 31.2622 18.72V16.72ZM26.7422 24.64H36.1022V22.64H26.7422V24.64ZM37.0886 23.4756C36.8455 22.0171 36.5807 20.8546 36.2839 20.0237L34.4004 20.6963C34.637 21.3588 34.8789 22.3829 35.1158 23.8044L37.0886 23.4756ZM36.2973 20.0636C35.9957 19.0918 35.4328 18.2879 34.6222 17.68L33.4222 19.28C33.8916 19.6321 34.2087 20.0815 34.3871 20.6564L36.2973 20.0636ZM34.6591 17.709C33.7919 16.9927 32.6015 16.72 31.2622 16.72V18.72C32.3762 18.72 33.0258 18.954 33.3853 19.251L34.6591 17.709ZM69.4241 36V37H70.0421L70.3185 36.4472L69.4241 36ZM61.8241 36H60.8241V37H61.8241V36ZM61.8241 31.84H62.8241V29.7028L61.1833 31.0723L61.8241 31.84ZM56.7441 36.08L57.1001 37.0145L57.2564 36.9549L57.3848 36.8477L56.7441 36.08ZM50.2241 34.76L49.4999 35.4497L49.5083 35.4583L50.2241 34.76ZM48.6241 20.68H49.6241V20.1061L49.1285 19.8166L48.6241 20.68ZM45.0641 18.6H44.0641V19.1739L44.5596 19.4634L45.0641 18.6ZM45.0641 17.36L44.6232 16.4624L44.0641 16.7371V17.36H45.0641ZM51.9041 14V13H51.6717L51.4632 13.1024L51.9041 14ZM53.4241 14H54.4241V13H53.4241V14ZM54.1041 31.32L53.3128 31.9314L53.3128 31.9314L54.1041 31.32ZM58.9841 31.76L59.3283 32.6989L59.342 32.6939L59.3555 32.6885L58.9841 31.76ZM61.8241 29.92L62.4624 30.6898L62.8241 30.3898V29.92H61.8241ZM61.8241 20.68H62.8241V20.1061L62.3285 19.8166L61.8241 20.68ZM58.2641 18.6H57.2641V19.1739L57.7596 19.4634L58.2641 18.6ZM58.2641 17.36L57.8232 16.4624L57.2641 16.7371V17.36H58.2641ZM65.1041 14V13H64.8717L64.6632 13.1024L65.1041 14ZM66.6241 14H67.6241V13H66.6241V14ZM66.6241 33H65.6241V33.6841L66.2616 33.932L66.6241 33ZM70.2241 34.4L71.1185 34.8472L71.6092 33.8657L70.5865 33.468L70.2241 34.4ZM69.4241 35H61.8241V37H69.4241V35ZM62.8241 36V31.84H60.8241V36H62.8241ZM61.1833 31.0723L56.1033 35.3123L57.3848 36.8477L62.4648 32.6077L61.1833 31.0723ZM56.3881 35.1455C55.9845 35.2993 55.3852 35.4 54.5441 35.4V37.4C55.5163 37.4 56.3837 37.2874 57.1001 37.0145L56.3881 35.1455ZM54.5441 35.4C52.9458 35.4 51.7835 34.9264 50.9398 34.0617L49.5083 35.4583C50.798 36.7803 52.5156 37.4 54.5441 37.4V35.4ZM50.9482 34.0703C50.0965 33.1761 49.6241 31.9373 49.6241 30.24H47.6241C47.6241 32.3294 48.2183 34.1039 49.4999 35.4497L50.9482 34.0703ZM49.6241 30.24V20.68H47.6241V30.24H49.6241ZM49.1285 19.8166L45.5685 17.7366L44.5596 19.4634L48.1196 21.5434L49.1285 19.8166ZM46.0641 18.6V17.36H44.0641V18.6H46.0641ZM45.505 18.2576L52.345 14.8976L51.4632 13.1024L44.6232 16.4624L45.505 18.2576ZM51.9041 15H53.4241V13H51.9041V15ZM52.4241 14V28.24H54.4241V14H52.4241ZM52.4241 28.24C52.4241 29.7453 52.6439 31.0658 53.3128 31.9314L54.8953 30.7086C54.6576 30.4009 54.4241 29.668 54.4241 28.24H52.4241ZM53.3128 31.9314C54.0442 32.878 55.243 33.2 56.5441 33.2V31.2C55.4985 31.2 55.0706 30.9353 54.8953 30.7086L53.3128 31.9314ZM56.5441 33.2C57.4918 33.2 58.4215 33.0314 59.3283 32.6989L58.6398 30.8211C57.9466 31.0753 57.2497 31.2 56.5441 31.2V33.2ZM59.3555 32.6885C60.2945 32.3129 61.3337 31.6257 62.4624 30.6898L61.1857 29.1502C60.1277 30.0276 59.2737 30.5671 58.6127 30.8315L59.3555 32.6885ZM62.8241 29.92V20.68H60.8241V29.92H62.8241ZM62.3285 19.8166L58.7685 17.7366L57.7596 19.4634L61.3196 21.5434L62.3285 19.8166ZM59.2641 18.6V17.36H57.2641V18.6H59.2641ZM58.705 18.2576L65.545 14.8976L64.6632 13.1024L57.8232 16.4624L58.705 18.2576ZM65.1041 15H66.6241V13H65.1041V15ZM65.6241 14V33H67.6241V14H65.6241ZM66.2616 33.932L69.8616 35.332L70.5865 33.468L66.9865 32.068L66.2616 33.932ZM69.3296 33.9528L68.5296 35.5528L70.3185 36.4472L71.1185 34.8472L69.3296 33.9528ZM94.9128 36V37H95.5308L95.8072 36.4472L94.9128 36ZM88.9528 36L88.1519 36.5988L88.4519 37H88.9528V36ZM82.6728 27.6L83.4737 27.0012L82.8046 26.1062L81.9891 26.8703L82.6728 27.6ZM78.2328 31.76L77.5491 31.0303L76.6624 31.8611L77.6483 32.5714L78.2328 31.76ZM81.9528 34.44L82.8472 34.8872L83.2278 34.1261L82.5373 33.6286L81.9528 34.44ZM81.1528 36.04V37.04H81.7708L82.0472 36.4872L81.1528 36.04ZM72.3928 36.04H71.3928V37.04H72.3928V36.04ZM72.3928 34.8L71.7033 34.0757L71.3928 34.3713V34.8H72.3928ZM81.5528 26.08L82.2423 26.8043L82.8951 26.1829L82.3447 25.4693L81.5528 26.08ZM75.7528 18.56L76.5447 17.9493L76.435 17.8071L76.2828 17.712L75.7528 18.56ZM72.2328 16.36L71.3384 15.9128L70.9317 16.7261L71.7028 17.208L72.2328 16.36ZM73.0328 14.76V13.76H72.4148L72.1384 14.3128L73.0328 14.76ZM78.9928 14.76L79.7933 14.1606L79.4933 13.76H78.9928V14.76ZM85.1928 23.04L84.3923 23.6394L85.0608 24.5321L85.8756 23.7706L85.1928 23.04ZM89.4728 19.04L90.1556 19.7706L91.0445 18.9398L90.0573 18.2286L89.4728 19.04ZM85.7528 16.36L84.8584 15.9128L84.4778 16.6739L85.1683 17.1714L85.7528 16.36ZM86.5528 14.76V13.76H85.9348L85.6584 14.3128L86.5528 14.76ZM95.3128 14.76H96.3128V13.76H95.3128V14.76ZM95.3128 16L96.002 16.7246L96.3128 16.429V16H95.3128ZM86.3128 24.56L85.6236 23.8354L84.9715 24.4557L85.5199 25.1693L86.3128 24.56ZM92.1528 32.16L91.3599 32.7693L91.4689 32.9111L91.6203 33.0064L92.1528 32.16ZM95.7128 34.4L96.6072 34.8472L97.0127 34.0364L96.2454 33.5536L95.7128 34.4ZM94.9128 35H88.9528V37H94.9128V35ZM89.7537 35.4012L83.4737 27.0012L81.8719 28.1988L88.1519 36.5988L89.7537 35.4012ZM81.9891 26.8703L77.5491 31.0303L78.9165 32.4897L83.3565 28.3297L81.9891 26.8703ZM77.6483 32.5714L81.3683 35.2514L82.5373 33.6286L78.8173 30.9486L77.6483 32.5714ZM81.0584 33.9928L80.2584 35.5928L82.0472 36.4872L82.8472 34.8872L81.0584 33.9928ZM81.1528 35.04H72.3928V37.04H81.1528V35.04ZM73.3928 36.04V34.8H71.3928V36.04H73.3928ZM73.0823 35.5243L82.2423 26.8043L80.8633 25.3557L71.7033 34.0757L73.0823 35.5243ZM82.3447 25.4693L76.5447 17.9493L74.961 19.1707L80.761 26.6907L82.3447 25.4693ZM76.2828 17.712L72.7628 15.512L71.7028 17.208L75.2228 19.408L76.2828 17.712ZM73.1272 16.8072L73.9272 15.2072L72.1384 14.3128L71.3384 15.9128L73.1272 16.8072ZM73.0328 15.76H78.9928V13.76H73.0328V15.76ZM78.1923 15.3594L84.3923 23.6394L85.9933 22.4406L79.7933 14.1606L78.1923 15.3594ZM85.8756 23.7706L90.1556 19.7706L88.79 18.3094L84.51 22.3094L85.8756 23.7706ZM90.0573 18.2286L86.3373 15.5486L85.1683 17.1714L88.8883 19.8514L90.0573 18.2286ZM86.6472 16.8072L87.4472 15.2072L85.6584 14.3128L84.8584 15.9128L86.6472 16.8072ZM86.5528 15.76H95.3128V13.76H86.5528V15.76ZM94.3128 14.76V16H96.3128V14.76H94.3128ZM94.6236 15.2754L85.6236 23.8354L87.002 25.2846L96.002 16.7246L94.6236 15.2754ZM85.5199 25.1693L91.3599 32.7693L92.9457 31.5507L87.1057 23.9507L85.5199 25.1693ZM91.6203 33.0064L95.1803 35.2464L96.2454 33.5536L92.6854 31.3136L91.6203 33.0064ZM94.8184 33.9528L94.0184 35.5528L95.8072 36.4472L96.6072 34.8472L94.8184 33.9528ZM109.719 36V37H110.337L110.614 36.4472L109.719 36ZM98.5594 36H97.5594V37H98.5594V36ZM98.5594 34.76L97.9412 33.974L97.5594 34.2743V34.76H98.5594ZM102.119 31.96L102.738 32.746L103.119 32.4457V31.96H102.119ZM102.119 20.28H103.119V19.7579L102.691 19.4595L102.119 20.28ZM98.5594 17.8H97.5594V18.3221L97.9878 18.6205L98.5594 17.8ZM98.5594 16.56L98.2089 15.6234L97.5594 15.8665V16.56H98.5594ZM105.399 14V13H105.218L105.049 13.0634L105.399 14ZM106.919 14H107.919V13H106.919V14ZM106.919 33H105.919V33.6841L106.557 33.932L106.919 33ZM110.519 34.4L111.414 34.8472L111.905 33.8657L110.882 33.468L110.519 34.4ZM106.319 2.88L105.563 3.53362L105.571 3.54325L105.579 3.55267L106.319 2.88ZM106.559 6.84L107.379 7.41346L107.385 7.40415L107.391 7.3947L106.559 6.84ZM105.159 8.12L105.656 8.98824L105.656 8.98824L105.159 8.12ZM101.519 7.72L100.763 8.37362L100.771 8.38325L100.779 8.39267L101.519 7.72ZM101.319 3.8L102.139 4.37346L102.145 4.36415L102.151 4.3547L101.319 3.8ZM102.719 2.48L102.223 1.61175L102.223 1.61175L102.719 2.48ZM109.719 35H98.5594V37H109.719V35ZM99.5594 36V34.76H97.5594V36H99.5594ZM99.1776 35.546L102.738 32.746L101.501 31.174L97.9412 33.974L99.1776 35.546ZM103.119 31.96V20.28H101.119V31.96H103.119ZM102.691 19.4595L99.131 16.9795L97.9878 18.6205L101.548 21.1005L102.691 19.4595ZM99.5594 17.8V16.56H97.5594V17.8H99.5594ZM98.9099 17.4966L105.75 14.9366L105.049 13.0634L98.2089 15.6234L98.9099 17.4966ZM105.399 15H106.919V13H105.399V15ZM105.919 14V33H107.919V14H105.919ZM106.557 33.932L110.157 35.332L110.882 33.468L107.282 32.068L106.557 33.932ZM109.625 33.9528L108.825 35.5528L110.614 36.4472L111.414 34.8472L109.625 33.9528ZM104.359 3C104.879 3 105.253 3.17484 105.563 3.53362L107.076 2.22638C106.373 1.41182 105.439 0.999999 104.359 0.999999V3ZM105.579 3.55267C105.927 3.93452 106.119 4.41923 106.119 5.08H108.119C108.119 3.98076 107.779 2.99881 107.059 2.20732L105.579 3.55267ZM106.119 5.08C106.119 5.47679 106.002 5.8729 105.727 6.2853L107.391 7.3947C107.863 6.6871 108.119 5.90988 108.119 5.08H106.119ZM105.74 6.26654C105.451 6.68014 105.094 7.00568 104.663 7.25176L105.656 8.98824C106.345 8.59432 106.921 8.06652 107.379 7.41346L105.74 6.26654ZM104.663 7.25176C104.223 7.50345 103.846 7.6 103.519 7.6V9.6C104.26 9.6 104.976 9.37655 105.656 8.98824L104.663 7.25176ZM103.519 7.6C102.998 7.6 102.601 7.42338 102.259 7.04733L100.779 8.39267C101.504 9.18995 102.441 9.6 103.519 9.6V7.6ZM102.276 7.06638C101.948 6.68591 101.759 6.19458 101.759 5.52H99.7594C99.7594 6.60542 100.078 7.58076 100.763 8.37362L102.276 7.06638ZM101.759 5.52C101.759 5.12478 101.875 4.74963 102.139 4.37346L100.5 3.22654C100.017 3.91703 99.7594 4.68856 99.7594 5.52H101.759ZM102.151 4.3547C102.443 3.91808 102.796 3.58784 103.216 3.34824L102.223 1.61175C101.523 2.01216 100.943 2.56191 100.487 3.2453L102.151 4.3547ZM103.216 3.34824C103.656 3.09655 104.033 3 104.359 3V0.999999C103.619 0.999999 102.903 1.22345 102.223 1.61175L103.216 3.34824ZM131.026 0.919999L130.857 1.90562L130.873 1.90831L130.889 1.91049L131.026 0.919999ZM133.066 1.36H134.066V0.682963L133.438 0.43152L133.066 1.36ZM133.066 7.52V8.52H134.066V7.52H133.066ZM131.546 7.52L130.698 8.05L130.992 8.52H131.546V7.52ZM129.106 5L128.552 5.83205L128.56 5.83745L128.568 5.84269L129.106 5ZM123.386 5.68L122.523 5.17482L122.519 5.18274L122.514 5.19075L123.386 5.68ZM122.466 15.96H121.466V16.96H122.466V15.96ZM129.666 15.96H130.666V14.96H129.666V15.96ZM129.666 17.6V18.6H130.666V17.6H129.666ZM122.466 17.6V16.6H121.466V17.6H122.466ZM122.466 32.68H121.466V33.419L122.173 33.6359L122.466 32.68ZM128.066 34.4L128.961 34.8472L129.489 33.7908L128.36 33.4441L128.066 34.4ZM127.266 36V37H127.884L128.161 36.4472L127.266 36ZM114.106 36H113.106V37H114.106V36ZM114.106 34.76L113.488 33.974L113.106 34.2743V34.76H114.106ZM117.666 31.96L118.284 32.746L118.666 32.4457V31.96H117.666ZM117.666 17.6H118.666V16.6H117.666V17.6ZM112.906 17.6H111.906V18.6H112.906V17.6ZM112.906 15.96V14.96H111.906V15.96H112.906ZM117.666 15.96V16.96H118.666V15.96H117.666ZM119.346 6.6L120.197 7.12549L120.197 7.12549L119.346 6.6ZM123.546 2.28L123.016 1.43198L123.01 1.43579L123.546 2.28ZM128.506 1.68C129.184 1.68 129.966 1.75278 130.857 1.90562L131.195 -0.0656237C130.22 -0.232781 129.322 -0.320001 128.506 -0.320001V1.68ZM130.889 1.91049C131.843 2.043 132.417 2.1774 132.695 2.28848L133.438 0.43152C132.915 0.222601 132.13 0.0636622 131.164 -0.0704936L130.889 1.91049ZM132.066 1.36V7.52H134.066V1.36H132.066ZM133.066 6.52H131.546V8.52H133.066V6.52ZM132.394 6.99C131.657 5.81067 130.742 4.8586 129.645 4.1573L128.568 5.84269C129.39 6.36806 130.102 7.096 130.698 8.05L132.394 6.99ZM129.661 4.16795C128.565 3.43741 127.402 3.04 126.186 3.04V5.04C126.944 5.04 127.727 5.28259 128.552 5.83205L129.661 4.16795ZM126.186 3.04C124.59 3.04 123.335 3.78737 122.523 5.17482L124.249 6.18518C124.717 5.38596 125.329 5.04 126.186 5.04V3.04ZM122.514 5.19075C121.778 6.50299 121.466 8.30478 121.466 10.48H123.466C123.466 8.44188 123.768 7.04367 124.258 6.16925L122.514 5.19075ZM121.466 10.48V15.96H123.466V10.48H121.466ZM122.466 16.96H129.666V14.96H122.466V16.96ZM128.666 15.96V17.6H130.666V15.96H128.666ZM129.666 16.6H122.466V18.6H129.666V16.6ZM121.466 17.6V32.68H123.466V17.6H121.466ZM122.173 33.6359L127.773 35.3559L128.36 33.4441L122.76 31.7241L122.173 33.6359ZM127.172 33.9528L126.372 35.5528L128.161 36.4472L128.961 34.8472L127.172 33.9528ZM127.266 35H114.106V37H127.266V35ZM115.106 36V34.76H113.106V36H115.106ZM114.724 35.546L118.284 32.746L117.048 31.174L113.488 33.974L114.724 35.546ZM118.666 31.96V17.6H116.666V31.96H118.666ZM117.666 16.6H112.906V18.6H117.666V16.6ZM113.906 17.6V15.96H111.906V17.6H113.906ZM112.906 16.96H117.666V14.96H112.906V16.96ZM118.666 15.96V12.4H116.666V15.96H118.666ZM118.666 12.4C118.666 10.5395 119.171 8.7872 120.197 7.12549L118.495 6.07451C117.282 8.03946 116.666 10.1538 116.666 12.4H118.666ZM120.197 7.12549C121.243 5.43151 122.539 4.10413 124.082 3.12421L123.01 1.43579C121.194 2.5892 119.689 4.14182 118.495 6.07451L120.197 7.12549ZM124.076 3.128C125.665 2.13522 127.136 1.68 128.506 1.68V-0.320001C126.676 -0.320001 124.841 0.291442 123.016 1.432L124.076 3.128ZM152.804 16L153.697 16.4515L153.804 16.2386V16H152.804ZM142.684 36L143.47 36.6189L143.532 36.5405L143.577 36.4515L142.684 36ZM134.364 46.56L133.745 47.3449L134.53 47.9651L135.15 47.1789L134.364 46.56ZM132.844 45.36L132.114 44.6773L131.372 45.4714L132.225 46.1449L132.844 45.36ZM136.284 41.08L135.447 40.5337L135.443 40.5402L135.438 40.5467L136.284 41.08ZM137.964 37.36L136.997 37.1076L136.995 37.1126L137.964 37.36ZM138.444 32.96H139.444V32.7616L139.369 32.5782L138.444 32.96ZM133.404 20.76L134.329 20.3782L134.199 20.0652L133.907 19.8952L133.404 20.76ZM129.684 18.6H128.684V19.1757L129.182 19.4648L129.684 18.6ZM129.684 17.36L129.243 16.4624L128.684 16.7371V17.36H129.684ZM136.524 14L137.494 13.756L137.193 12.5576L136.083 13.1024L136.524 14ZM138.044 20.04L137.075 20.284L137.092 20.353L137.119 20.4189L138.044 20.04ZM142.924 31.96L141.999 32.3389L142.851 34.4193L143.825 32.3936L142.924 31.96ZM148.564 20.24L149.465 20.6736L149.827 19.9229L149.154 19.4321L148.564 20.24ZM143.244 16.36L142.35 15.9128L141.972 16.6695L142.655 17.1679L143.244 16.36ZM144.044 14.76V13.76H143.426L143.15 14.3128L144.044 14.76ZM152.804 14.76H153.804V13.76H152.804V14.76ZM151.912 15.5485L141.792 35.5485L143.577 36.4515L153.697 16.4515L151.912 15.5485ZM141.899 35.3811L133.579 45.9411L135.15 47.1789L143.47 36.6189L141.899 35.3811ZM134.984 45.7751L133.464 44.5751L132.225 46.1449L133.745 47.3449L134.984 45.7751ZM133.575 46.0427C135.118 44.3917 136.311 42.9136 137.13 41.6133L135.438 40.5467C134.712 41.6998 133.611 43.075 132.114 44.6773L133.575 46.0427ZM137.122 41.6263C137.974 40.3198 138.583 38.9799 138.933 37.6074L136.995 37.1126C136.706 38.2468 136.195 39.3869 135.447 40.5337L137.122 41.6263ZM138.932 37.6124C139.279 36.2805 139.444 34.7245 139.444 32.96H137.444C137.444 34.6088 137.289 35.9861 136.997 37.1076L138.932 37.6124ZM139.369 32.5782L134.329 20.3782L132.48 21.1418L137.52 33.3418L139.369 32.5782ZM133.907 19.8952L130.187 17.7352L129.182 19.4648L132.902 21.6248L133.907 19.8952ZM130.684 18.6V17.36H128.684V18.6H130.684ZM130.125 18.2576L136.965 14.8976L136.083 13.1024L129.243 16.4624L130.125 18.2576ZM135.555 14.244L137.075 20.284L139.014 19.796L137.494 13.756L135.555 14.244ZM137.119 20.4189L141.999 32.3389L143.85 31.5811L138.97 19.6611L137.119 20.4189ZM143.825 32.3936L149.465 20.6736L147.663 19.8064L142.023 31.5264L143.825 32.3936ZM149.154 19.4321L143.834 15.5521L142.655 17.1679L147.975 21.0479L149.154 19.4321ZM144.139 16.8072L144.939 15.2072L143.15 14.3128L142.35 15.9128L144.139 16.8072ZM144.044 15.76H152.804V13.76H144.044V15.76ZM151.804 14.76V16H153.804V14.76H151.804Z" fill="black" mask="url(#path-1-outside-1_1_3)"/>
</svg>
